<svg width="108" height="108" viewBox="0 0 108 108" fill="none" xmlns="http://www.w3.org/2000/svg">
<g clip-path="url(#clip0_109_1882)">
<mask id="mask0_109_1882" style="mask-type:alpha" maskUnits="userSpaceOnUse" x="0" y="0" width="108" height="108">
<circle cx="54" cy="54" r="54" fill="#D9D9D9"/>
</mask>
<g mask="url(#mask0_109_1882)">
<circle cx="54" cy="54" r="54" fill="#4A3AFF"/>
<path fill-rule="evenodd" clip-rule="evenodd" d="M71.6856 40.3638C75.8881 40.3638 79.2949 36.9571 79.2949 32.7546C79.2949 28.5521 75.8881 25.1454 71.6856 25.1454C67.4832 25.1454 64.0764 28.5521 64.0764 32.7546C64.0764 36.9571 67.4832 40.3638 71.6856 40.3638Z" fill="white"/>
<path fill-rule="evenodd" clip-rule="evenodd" d="M71.6854 60.1826C75.8879 60.1826 79.2946 56.6174 79.2946 52.2195C79.2946 47.8216 75.8879 44.2564 71.6854 44.2564C67.4829 44.2564 64.0762 47.8216 64.0762 52.2195C64.0762 56.6174 67.4829 60.1826 71.6854 60.1826Z" fill="white"/>
<path fill-rule="evenodd" clip-rule="evenodd" d="M71.6854 79.2942C75.8879 79.2942 79.2946 75.8874 79.2946 71.6849C79.2946 67.4825 75.8879 64.0757 71.6854 64.0757C67.4829 64.0757 64.0762 67.4825 64.0762 71.6849C64.0762 75.8874 67.4829 79.2942 71.6854 79.2942Z" fill="white"/>
<path fill-rule="evenodd" clip-rule="evenodd" d="M52.2205 60.1825C56.6184 60.1825 60.1836 56.6173 60.1836 52.2194C60.1836 47.8215 56.6184 44.2562 52.2205 44.2562C47.8225 44.2562 44.2573 47.8215 44.2573 52.2194C44.2573 56.6173 47.8225 60.1825 52.2205 60.1825Z" fill="white"/>
<path fill-rule="evenodd" clip-rule="evenodd" d="M52.2205 79.2947C56.6184 79.2947 60.1836 75.8879 60.1836 71.6854C60.1836 67.483 56.6184 64.0762 52.2205 64.0762C47.8225 64.0762 44.2573 67.483 44.2573 71.6854C44.2573 75.8879 47.8225 79.2947 52.2205 79.2947Z" fill="white"/>
<path fill-rule="evenodd" clip-rule="evenodd" d="M32.7543 79.2941C36.9567 79.2941 40.3635 75.8873 40.3635 71.6848C40.3635 67.4824 36.9567 64.0756 32.7543 64.0756C28.5518 64.0756 25.145 67.4824 25.145 71.6848C25.145 75.8873 28.5518 79.2941 32.7543 79.2941Z" fill="white"/>
</g>
</g>
<defs>
<clipPath id="clip0_109_1882">
<rect width="108" height="108" fill="white"/>
</clipPath>
</defs>
</svg>
