<svg width="1492" height="223" viewBox="0 0 1492 223" fill="none" xmlns="http://www.w3.org/2000/svg">
<path fill-rule="evenodd" clip-rule="evenodd" d="M658.314 0.296167C656.047 0.46474 648.625 0.998001 641.822 1.48035C505.185 11.1783 322.675 54.5288 198.731 106.726C92.7305 151.366 -1.43315 205.214 0.0165215 220.361C0.347192 223.811 3.66791 223.866 14.1686 220.597C23.603 217.658 22.9779 217.248 12.3932 219.431C1.85294 221.605 1.4596 221.181 8.10599 214.808C35.8362 188.217 173.375 123.185 267.655 92.0871C421.209 41.4378 573.099 13.4556 696.659 13.0517C743.93 12.8973 756.031 14.9569 756.031 23.1569C756.031 34.2768 708.279 65.3241 677.28 74.3595C583.445 101.709 461.571 148.99 448.106 163.269C443.622 168.024 445.835 174.367 451.977 174.367C464.065 174.367 558.311 138.814 634.813 105.395C661.458 93.7561 665.131 92.6537 742.013 73.2404C858.659 43.7861 918.889 34.0857 994.345 32.6011C1025.39 31.9911 1028.5 32.6629 1024.02 39.021C1015.01 51.8359 947.926 84.6891 832.308 132.917C811.883 141.436 806.826 147.289 813.795 154.341L816.31 156.886L825.133 156.449C831.811 156.119 839.343 154.777 856.096 150.935C913.013 137.879 1020.85 116.301 1073.1 107.514C1161.94 92.5686 1259.25 82.1354 1396.76 72.8114C1417.26 71.4219 1433.38 69.8539 1444.58 68.1615C1453.88 66.7578 1468.35 64.9511 1476.74 64.1475L1492 62.6854L1481.69 62.077C1476.02 61.7424 1463.96 60.4539 1454.89 59.2138C1414.01 53.625 1347.44 57.2076 1201.74 72.8389C1107.82 82.9141 995.607 102.367 893.484 126.276C886.766 127.849 880.644 129.124 879.878 129.109C879.113 129.093 887.392 125.216 898.277 120.493C1022.23 66.7069 1050.4 47.9353 1038.64 26.9372C1033.91 18.4802 1025.86 16.5091 995.994 16.4949C924.014 16.4599 848.939 28.2558 746.591 55.6813C731.714 59.6678 731.755 59.6878 741.28 53.0868C777.029 28.3067 775.323 8.75647 736.799 1.74236C730.35 0.56903 669.679 -0.550032 658.314 0.296167Z" fill="#FFDF00"/>
</svg>
