<svg xmlns="http://www.w3.org/2000/svg" id="canvas" viewBox="224.769 309.527 1069.211 175.229"><path d="M 243.72,393.27 C 242.55 394.34, 242.09 395.75, 241.50 398.97 C 240.92 402.18, 241.20 404.44, 240.81 409.35 C 240.42 414.25, 240.15 417.59, 239.55 423.48 C 238.94 429.38, 238.58 432.76, 237.77 438.82 C 236.95 444.88, 236.44 448.22, 235.48 453.77 C 234.51 459.32, 233.99 462.20, 232.95 466.56 C 231.91 470.91, 230.56 472.79, 230.27 475.55 C 229.98 478.30, 230.63 479.41, 231.51 480.32 C 232.39 481.23, 233.57 481.18, 234.68 480.10 C 235.78 479.02, 236.58 477.94, 237.02 474.92 C 237.47 471.90, 236.70 469.61, 236.89 465.01 C 237.08 460.40, 237.17 457.45, 237.96 451.90 C 238.75 446.35, 239.35 443.13, 240.83 437.23 C 242.32 431.33, 243.30 428.10, 245.38 422.39 C 247.46 416.69, 248.68 413.78, 251.24 408.72 C 253.81 403.67, 255.25 401.23, 258.19 397.12 C 261.13 393.02, 262.74 391.17, 265.93 388.22 C 269.13 385.26, 270.85 384.15, 274.16 382.34 C 277.46 380.52, 279.10 379.91, 282.47 379.15 C 285.84 378.39, 287.53 378.36, 291.01 378.52 C 294.49 378.69, 296.59 379.14, 299.86 379.96 C 303.12 380.78, 304.71 381.98, 307.33 382.62 C 309.95 383.25, 311.09 383.10, 312.94 383.13 C 314.79 383.15, 315.64 383.30, 316.57 382.73 C 317.50 382.17, 317.88 381.39, 317.58 380.31 C 317.28 379.24, 316.62 378.59, 315.07 377.36 C 313.52 376.13, 312.59 375.12, 309.82 374.16 C 307.05 373.21, 304.96 373.06, 301.21 372.59 C 297.46 372.12, 295.11 371.71, 291.05 371.82 C 287.00 371.93, 284.88 372.04, 280.93 373.16 C 276.98 374.27, 275.01 375.13, 271.29 377.39 C 267.57 379.66, 265.72 381.08, 262.33 384.49 C 258.93 387.89, 257.32 389.98, 254.31 394.43 C 251.30 398.88, 249.88 401.45, 247.27 406.74 C 244.67 412.03, 243.45 415.02, 241.27 420.88 C 239.09 426.74, 238.09 430.03, 236.38 436.04 C 234.66 442.04, 234.02 445.30, 232.71 450.91 C 231.40 456.53, 230.81 459.43, 229.83 464.11 C 228.84 468.80, 227.73 471.06, 227.77 474.33 C 227.81 477.60, 228.74 479.05, 230.03 480.45 C 231.32 481.86, 232.72 482.06, 234.22 481.38 C 235.73 480.69, 236.71 479.80, 237.55 477.03 C 238.38 474.26, 237.88 472.02, 238.40 467.52 C 238.93 463.02, 239.37 460.12, 240.17 454.51 C 240.97 448.90, 241.49 445.55, 242.40 439.48 C 243.32 433.41, 243.83 430.03, 244.73 424.15 C 245.64 418.26, 246.18 414.95, 246.93 410.06 C 247.68 405.17, 248.40 402.98, 248.48 399.68 C 248.57 396.39, 248.30 394.88, 247.35 393.60 C 246.40 392.32, 244.89 392.19, 243.72 393.27" style="stroke: black; fill: black;"/><path d="M 334.98,433.63 C 335.96 434.66, 337.01 435.23, 339.33 435.26 C 341.66 435.28, 343.32 434.97, 346.60 433.76 C 349.89 432.54, 351.91 431.30, 355.75 429.19 C 359.59 427.07, 361.84 425.75, 365.81 423.17 C 369.79 420.58, 371.90 419.09, 375.61 416.25 C 379.32 413.41, 381.23 411.90, 384.37 408.97 C 387.52 406.04, 389.04 404.57, 391.32 401.61 C 393.60 398.65, 394.77 397.19, 395.78 394.17 C 396.80 391.15, 396.94 389.39, 396.39 386.50 C 395.84 383.61, 395.13 381.91, 393.02 379.73 C 390.91 377.54, 389.20 376.24, 385.85 375.57 C 382.50 374.90, 380.37 375.44, 376.27 376.38 C 372.18 377.32, 369.91 378.15, 365.38 380.27 C 360.85 382.40, 358.25 383.82, 353.62 387.01 C 348.99 390.19, 346.48 392.18, 342.23 396.21 C 337.98 400.25, 335.77 402.56, 332.38 407.20 C 328.98 411.84, 327.37 414.43, 325.24 419.42 C 323.12 424.40, 322.33 427.11, 321.76 432.14 C 321.20 437.18, 321.18 439.93, 322.42 444.58 C 323.65 449.23, 324.84 451.62, 327.94 455.39 C 331.03 459.16, 333.24 460.92, 337.89 463.42 C 342.54 465.93, 345.39 466.79, 351.19 467.92 C 356.99 469.05, 360.94 469.06, 366.88 469.07 C 372.83 469.08, 376.18 468.73, 380.91 467.99 C 385.64 467.25, 388.74 466.58, 390.53 465.38 C 392.33 464.18, 391.92 462.45, 389.88 461.99 C 387.83 461.54, 384.90 462.70, 380.31 463.11 C 375.71 463.52, 372.53 464.06, 366.89 464.06 C 361.25 464.06, 357.44 464.12, 352.12 463.10 C 346.81 462.07, 344.34 461.16, 340.32 458.95 C 336.31 456.73, 334.62 455.17, 332.06 452.02 C 329.51 448.87, 328.59 447.07, 327.54 443.21 C 326.49 439.34, 326.39 437.07, 326.82 432.68 C 327.26 428.30, 327.84 425.83, 329.71 421.29 C 331.58 416.75, 333.03 414.31, 336.20 410.00 C 339.36 405.70, 341.47 403.48, 345.54 399.77 C 349.60 396.05, 352.08 394.20, 356.53 391.43 C 360.97 388.66, 363.55 387.47, 367.75 385.92 C 371.96 384.37, 374.22 384.02, 377.54 383.69 C 380.85 383.35, 382.21 383.93, 384.31 384.22 C 386.42 384.52, 387.04 384.50, 388.07 385.17 C 389.09 385.83, 389.34 386.27, 389.42 387.55 C 389.50 388.84, 389.23 389.59, 388.47 391.59 C 387.71 393.58, 387.33 394.96, 385.64 397.54 C 383.94 400.12, 382.75 401.70, 380.01 404.49 C 377.28 407.28, 375.47 408.82, 371.97 411.48 C 368.47 414.14, 366.40 415.57, 362.53 417.78 C 358.65 419.99, 356.37 421.04, 352.59 422.53 C 348.82 424.03, 346.66 424.28, 343.65 425.25 C 340.64 426.22, 339.38 426.42, 337.54 427.40 C 335.71 428.37, 334.98 428.86, 334.47 430.11 C 333.96 431.35, 334.01 432.60, 334.98 433.63" style="stroke: black; fill: black;"/><path d="M 478.84,396.55 C 479.05 395.23, 478.73 394.35, 477.65 393.02 C 476.58 391.69, 475.70 390.85, 473.47 389.89 C 471.24 388.93, 469.59 388.28, 466.51 388.22 C 463.43 388.16, 461.57 388.55, 458.05 389.59 C 454.53 390.63, 452.65 391.38, 448.92 393.44 C 445.19 395.49, 443.11 396.76, 439.41 399.86 C 435.70 402.97, 433.72 404.93, 430.39 408.96 C 427.07 412.99, 425.35 415.43, 422.77 420.02 C 420.19 424.62, 418.99 427.24, 417.50 431.93 C 416.00 436.63, 415.48 439.14, 415.30 443.50 C 415.12 447.85, 415.27 450.14, 416.61 453.70 C 417.95 457.26, 419.17 459.17, 422.00 461.30 C 424.83 463.42, 427.03 464.15, 430.78 464.33 C 434.53 464.51, 436.71 463.86, 440.75 462.21 C 444.79 460.57, 446.87 459.12, 451.00 456.10 C 455.13 453.08, 457.29 451.11, 461.38 447.12 C 465.46 443.13, 467.59 440.59, 471.41 436.13 C 475.23 431.67, 477.17 429.13, 480.46 424.83 C 483.75 420.53, 485.32 418.22, 487.86 414.64 C 490.40 411.06, 492.16 409.38, 493.14 406.92 C 494.13 404.46, 493.53 403.04, 492.77 402.33 C 492.01 401.62, 490.39 401.66, 489.35 403.37 C 488.30 405.08, 488.09 406.91, 487.55 410.89 C 487.00 414.88, 487.04 417.94, 486.64 423.30 C 486.24 428.67, 485.93 432.09, 485.56 437.73 C 485.19 443.37, 484.92 446.46, 484.80 451.50 C 484.68 456.54, 484.54 459.02, 484.95 462.94 C 485.36 466.85, 485.79 468.68, 486.85 471.07 C 487.91 473.46, 489.02 473.99, 490.26 474.88 C 491.51 475.77, 492.30 475.72, 493.09 475.53 C 493.88 475.35, 494.08 474.59, 494.23 473.94 C 494.38 473.29, 493.99 473.34, 493.84 472.29 C 493.68 471.25, 493.99 470.75, 493.46 468.70 C 492.93 466.65, 491.84 465.47, 491.19 462.04 C 490.54 458.61, 490.27 456.31, 490.23 451.54 C 490.18 446.76, 490.41 443.67, 490.95 438.17 C 491.50 432.68, 492.09 429.31, 492.96 424.06 C 493.83 418.81, 494.77 415.96, 495.31 411.94 C 495.84 407.92, 496.34 406.19, 495.66 403.95 C 494.97 401.71, 493.64 400.91, 491.89 400.75 C 490.14 400.59, 488.70 401.01, 486.91 403.16 C 485.11 405.32, 485.02 407.77, 482.92 411.51 C 480.82 415.25, 479.46 417.57, 476.42 421.86 C 473.38 426.15, 471.44 428.65, 467.72 432.96 C 464.00 437.26, 461.84 439.71, 457.83 443.38 C 453.83 447.05, 451.59 448.80, 447.69 451.31 C 443.80 453.82, 441.69 454.81, 438.38 455.94 C 435.07 457.07, 433.54 457.08, 431.13 456.97 C 428.72 456.86, 427.97 456.54, 426.34 455.39 C 424.70 454.24, 423.95 453.56, 422.96 451.20 C 421.96 448.84, 421.41 447.14, 421.38 443.61 C 421.35 440.08, 421.60 437.75, 422.82 433.56 C 424.04 429.37, 425.11 426.87, 427.48 422.67 C 429.85 418.48, 431.51 416.17, 434.66 412.58 C 437.80 408.98, 439.74 407.24, 443.21 404.69 C 446.68 402.15, 448.67 401.18, 451.99 399.86 C 455.32 398.53, 457.07 398.34, 459.84 398.06 C 462.61 397.78, 463.75 398.16, 465.82 398.44 C 467.90 398.73, 468.65 399.17, 470.20 399.50 C 471.75 399.82, 472.30 400.05, 473.58 400.08 C 474.86 400.10, 475.55 400.32, 476.60 399.61 C 477.65 398.91, 478.63 397.87, 478.84 396.55" style="stroke: black; fill: black;"/><path d="M 560.48,319.20 C 559.33 319.98, 558.64 320.69, 558.13 323.26 C 557.62 325.82, 558.12 327.52, 557.91 332.02 C 557.71 336.53, 557.65 339.56, 557.10 345.78 C 556.55 352.00, 556.07 355.79, 555.15 363.13 C 554.24 370.48, 553.61 374.71, 552.52 382.52 C 551.43 390.32, 550.75 394.53, 549.71 402.16 C 548.66 409.79, 548.10 413.69, 547.28 420.68 C 546.47 427.66, 546.09 431.11, 545.62 437.11 C 545.14 443.11, 544.84 446.07, 544.91 450.66 C 544.98 455.25, 545.14 457.28, 545.96 460.06 C 546.78 462.84, 547.92 463.79, 549.00 464.56 C 550.08 465.32, 550.84 465.00, 551.37 463.87 C 551.91 462.75, 551.95 461.62, 551.69 458.93 C 551.42 456.23, 550.43 454.72, 550.04 450.40 C 549.66 446.08, 549.58 443.20, 549.76 437.33 C 549.93 431.47, 550.23 428.01, 550.91 421.07 C 551.59 414.12, 552.13 410.23, 553.16 402.63 C 554.19 395.02, 554.87 390.82, 556.07 383.04 C 557.26 375.25, 557.94 371.03, 559.14 363.71 C 560.33 356.39, 560.99 352.63, 562.06 346.43 C 563.12 340.23, 563.70 337.23, 564.45 332.71 C 565.20 328.19, 565.92 326.50, 565.80 323.83 C 565.67 321.16, 564.90 320.28, 563.84 319.35 C 562.77 318.43, 561.62 318.42, 560.48 319.20" style="stroke: black; fill: black;"/><path d="M 777.65,383.97 C 777.22 382.50, 776.22 381.35, 774.05 380.18 C 771.89 379.01, 770.23 378.44, 766.83 378.12 C 763.43 377.79, 761.08 377.98, 757.07 378.55 C 753.05 379.11, 750.85 379.72, 746.77 380.96 C 742.70 382.19, 740.54 383.02, 736.68 384.71 C 732.83 386.40, 730.73 387.30, 727.49 389.42 C 724.24 391.54, 722.39 392.59, 720.45 395.32 C 718.51 398.05, 717.96 399.91, 717.79 403.07 C 717.61 406.23, 717.83 408.24, 719.59 411.14 C 721.35 414.03, 723.23 415.17, 726.57 417.54 C 729.92 419.91, 732.14 420.84, 736.31 422.97 C 740.48 425.09, 742.98 426.06, 747.43 428.17 C 751.88 430.28, 754.43 431.35, 758.56 433.51 C 762.69 435.67, 764.86 436.79, 768.08 438.97 C 771.31 441.15, 772.70 442.41, 774.69 444.41 C 776.68 446.41, 777.32 447.33, 778.05 448.97 C 778.79 450.62, 778.83 451.12, 778.36 452.62 C 777.90 454.12, 777.41 454.67, 775.73 456.46 C 774.05 458.26, 773.03 459.59, 769.95 461.61 C 766.87 463.63, 764.74 464.82, 760.34 466.56 C 755.94 468.29, 753.11 469.16, 747.94 470.31 C 742.76 471.46, 739.71 471.93, 734.45 472.31 C 729.20 472.69, 726.31 472.66, 721.65 472.21 C 716.98 471.76, 714.58 471.24, 711.14 470.05 C 707.70 468.87, 706.35 467.99, 704.44 466.30 C 702.53 464.60, 702.38 463.42, 701.60 461.57 C 700.81 459.71, 700.99 458.75, 700.51 457.03 C 700.03 455.32, 700.15 453.87, 699.20 452.98 C 698.24 452.08, 696.91 451.67, 695.74 452.56 C 694.58 453.45, 693.60 454.98, 693.35 457.43 C 693.10 459.88, 693.15 461.96, 694.51 464.81 C 695.88 467.66, 697.20 469.51, 700.18 471.68 C 703.16 473.85, 705.22 474.51, 709.42 475.66 C 713.63 476.82, 716.14 477.13, 721.22 477.47 C 726.30 477.81, 729.26 477.76, 734.82 477.36 C 740.37 476.96, 743.50 476.51, 749.00 475.46 C 754.50 474.42, 757.43 473.69, 762.32 472.12 C 767.21 470.55, 769.59 469.66, 773.46 467.61 C 777.34 465.56, 779.30 464.55, 781.69 461.88 C 784.07 459.20, 784.80 457.35, 785.39 454.22 C 785.98 451.10, 785.81 449.22, 784.64 446.25 C 783.47 443.29, 782.20 441.88, 779.55 439.39 C 776.90 436.89, 775.05 435.98, 771.38 433.78 C 767.70 431.58, 765.47 430.57, 761.20 428.40 C 756.93 426.22, 754.37 425.13, 750.02 422.91 C 745.67 420.68, 743.24 419.54, 739.45 417.27 C 735.66 415.00, 733.70 413.70, 731.06 411.57 C 728.42 409.44, 727.56 408.24, 726.26 406.62 C 724.95 404.99, 724.46 404.75, 724.54 403.45 C 724.62 402.15, 725.25 401.73, 726.66 400.13 C 728.07 398.53, 729.04 397.29, 731.60 395.46 C 734.16 393.63, 736.06 392.51, 739.47 390.97 C 742.88 389.42, 744.99 388.63, 748.64 387.74 C 752.30 386.85, 754.30 386.56, 757.74 386.50 C 761.18 386.44, 763.03 387.10, 765.84 387.43 C 768.66 387.76, 769.73 388.14, 771.81 388.16 C 773.89 388.18, 775.07 388.39, 776.24 387.55 C 777.40 386.71, 778.09 385.44, 777.65 383.97" style="stroke: black; fill: black;"/><path d="M 838.74,313.12 C 837.61 313.92, 836.99 314.72, 836.53 317.14 C 836.07 319.57, 836.46 321.12, 836.43 325.25 C 836.41 329.38, 836.61 332.06, 836.41 337.79 C 836.21 343.53, 835.98 346.97, 835.44 353.90 C 834.89 360.84, 834.47 364.83, 833.68 372.47 C 832.89 380.10, 832.33 384.30, 831.48 392.07 C 830.62 399.85, 830.17 403.96, 829.39 411.35 C 828.62 418.74, 828.25 422.48, 827.59 429.01 C 826.93 435.55, 826.55 438.71, 826.10 444.02 C 825.65 449.32, 825.35 451.84, 825.36 455.53 C 825.37 459.21, 825.43 461.05, 826.16 462.46 C 826.88 463.87, 828.14 463.92, 828.99 462.57 C 829.83 461.23, 830.03 459.40, 830.36 455.74 C 830.69 452.09, 830.42 449.58, 830.63 444.30 C 830.84 439.02, 830.96 435.86, 831.42 429.34 C 831.87 422.82, 832.21 419.08, 832.91 411.70 C 833.62 404.33, 834.06 400.23, 834.95 392.46 C 835.84 384.70, 836.41 380.51, 837.35 372.89 C 838.30 365.26, 838.78 361.27, 839.66 354.34 C 840.54 347.41, 840.99 343.97, 841.75 338.24 C 842.52 332.52, 842.99 329.86, 843.49 325.70 C 844.00 321.54, 844.54 319.97, 844.29 317.46 C 844.03 314.96, 843.31 314.04, 842.20 313.18 C 841.09 312.31, 839.88 312.33, 838.74 313.12" style="stroke: black; fill: black;"/><path d="M 807.55,405.68 C 808.53 406.68, 809.48 407.05, 811.79 407.16 C 814.11 407.27, 815.49 406.72, 819.11 406.24 C 822.74 405.76, 825.16 405.19, 829.93 404.75 C 834.71 404.30, 837.99 404.25, 842.99 404.02 C 848.00 403.80, 850.92 403.95, 854.96 403.62 C 859.01 403.30, 861.56 403.32, 863.21 402.40 C 864.86 401.48, 864.86 399.92, 863.20 399.01 C 861.53 398.10, 858.97 398.10, 854.89 397.87 C 850.82 397.64, 847.90 397.84, 842.83 397.88 C 837.77 397.92, 834.47 397.99, 829.57 398.07 C 824.67 398.14, 822.12 398.01, 818.33 398.25 C 814.54 398.50, 812.92 398.50, 810.63 399.29 C 808.35 400.08, 807.54 400.92, 806.92 402.20 C 806.31 403.48, 806.58 404.69, 807.55 405.68" style="stroke: black; fill: black;"/><path d="M 934.60,401.95 C 934.19 400.60, 933.38 399.81, 931.54 398.85 C 929.70 397.89, 928.30 397.21, 925.40 397.15 C 922.50 397.09, 920.47 397.47, 917.02 398.56 C 913.57 399.65, 911.74 400.53, 908.13 402.58 C 904.52 404.63, 902.50 405.88, 898.96 408.80 C 895.41 411.73, 893.48 413.49, 890.40 417.22 C 887.32 420.95, 885.73 423.18, 883.56 427.45 C 881.40 431.73, 880.41 434.13, 879.57 438.58 C 878.74 443.03, 878.55 445.55, 879.38 449.70 C 880.22 453.86, 881.13 456.18, 883.75 459.37 C 886.36 462.56, 888.43 463.96, 892.48 465.64 C 896.53 467.32, 899.11 467.73, 903.99 467.77 C 908.88 467.82, 911.73 467.30, 916.90 465.85 C 922.07 464.40, 924.90 463.17, 929.85 460.51 C 934.81 457.85, 937.36 456.13, 941.68 452.57 C 946.00 449.01, 948.14 446.87, 951.45 442.72 C 954.76 438.56, 956.27 436.20, 958.24 431.79 C 960.21 427.39, 960.95 425.02, 961.30 420.70 C 961.66 416.38, 961.38 413.99, 960.02 410.21 C 958.65 406.42, 957.34 404.47, 954.47 401.77 C 951.60 399.06, 949.47 398.03, 945.67 396.67 C 941.87 395.32, 939.54 395.10, 935.47 394.99 C 931.40 394.87, 929.13 395.30, 925.32 396.10 C 921.51 396.90, 919.21 397.55, 916.44 399.00 C 913.66 400.44, 912.78 401.71, 911.45 403.32 C 910.11 404.93, 909.79 405.90, 909.78 407.04 C 909.77 408.18, 910.38 408.71, 911.39 409.01 C 912.40 409.31, 913.09 408.94, 914.85 408.54 C 916.60 408.14, 917.69 408.00, 920.16 407.00 C 922.64 406.00, 924.19 404.49, 927.23 403.53 C 930.27 402.57, 932.16 402.23, 935.38 402.21 C 938.61 402.18, 940.47 402.47, 943.36 403.41 C 946.25 404.34, 947.70 405.06, 949.82 406.88 C 951.94 408.71, 952.84 409.84, 953.95 412.53 C 955.06 415.21, 955.51 416.89, 955.37 420.32 C 955.23 423.74, 954.84 425.80, 953.26 429.65 C 951.68 433.51, 950.41 435.77, 947.47 439.59 C 944.52 443.41, 942.54 445.48, 938.55 448.76 C 934.55 452.05, 932.11 453.66, 927.50 456.04 C 922.89 458.41, 920.19 459.45, 915.51 460.63 C 910.83 461.80, 908.24 462.06, 904.12 461.91 C 900.00 461.75, 897.99 461.19, 894.91 459.86 C 891.83 458.54, 890.59 457.57, 888.72 455.29 C 886.84 453.01, 886.20 451.58, 885.56 448.45 C 884.92 445.33, 884.87 443.34, 885.52 439.67 C 886.17 436.01, 886.92 433.84, 888.82 430.13 C 890.72 426.42, 892.18 424.36, 895.00 421.11 C 897.83 417.87, 899.65 416.28, 902.92 413.90 C 906.20 411.52, 908.16 410.51, 911.38 409.20 C 914.60 407.90, 916.22 407.72, 919.03 407.38 C 921.85 407.03, 923.23 407.56, 925.46 407.47 C 927.68 407.39, 928.54 407.31, 930.17 406.94 C 931.80 406.57, 932.72 406.60, 933.61 405.61 C 934.50 404.61, 935.01 403.30, 934.60 401.95" style="stroke: black; fill: black;"/><path d="M 997.00,414.89 C 995.71 415.75, 995.13 417.09, 994.44 419.46 C 993.74 421.82, 993.85 423.35, 993.53 426.70 C 993.21 430.05, 993.23 432.43, 992.82 436.21 C 992.42 439.99, 992.19 442.16, 991.52 445.63 C 990.86 449.09, 989.79 450.80, 989.49 453.53 C 989.20 456.25, 989.34 457.66, 990.06 459.27 C 990.78 460.89, 991.69 461.45, 993.09 461.60 C 994.50 461.75, 995.78 461.49, 997.09 460.02 C 998.39 458.56, 998.86 457.31, 999.62 454.27 C 1000.39 451.22, 1000.01 448.91, 1000.91 444.80 C 1001.82 440.69, 1002.49 438.16, 1004.15 433.70 C 1005.81 429.24, 1006.91 426.81, 1009.21 422.51 C 1011.50 418.22, 1012.87 415.96, 1015.63 412.23 C 1018.40 408.51, 1019.99 406.73, 1023.03 403.89 C 1026.07 401.05, 1027.64 399.90, 1030.82 398.03 C 1034.00 396.17, 1035.69 395.50, 1038.93 394.57 C 1042.18 393.63, 1043.83 393.48, 1047.03 393.35 C 1050.23 393.22, 1051.86 393.36, 1054.95 393.93 C 1058.03 394.49, 1059.52 395.17, 1062.46 396.17 C 1065.39 397.17, 1067.05 398.37, 1069.62 398.92 C 1072.19 399.46, 1073.89 399.50, 1075.30 398.88 C 1076.71 398.27, 1077.18 397.31, 1076.65 395.83 C 1076.12 394.36, 1075.01 393.00, 1072.66 391.52 C 1070.31 390.04, 1068.22 389.39, 1064.89 388.42 C 1061.55 387.45, 1059.65 387.08, 1055.98 386.68 C 1052.32 386.28, 1050.37 386.08, 1046.57 386.42 C 1042.76 386.76, 1040.75 387.08, 1036.97 388.37 C 1033.18 389.67, 1031.23 390.60, 1027.66 392.89 C 1024.09 395.18, 1022.40 396.59, 1019.12 399.82 C 1015.84 403.04, 1014.21 405.00, 1011.26 409.00 C 1008.32 413.01, 1006.93 415.38, 1004.39 419.86 C 1001.85 424.33, 1000.69 426.82, 998.57 431.36 C 996.45 435.89, 995.52 438.44, 993.79 442.51 C 992.06 446.59, 990.78 448.59, 989.93 451.74 C 989.08 454.89, 989.01 456.36, 989.53 458.28 C 990.05 460.20, 991.24 460.97, 992.54 461.35 C 993.84 461.73, 994.87 461.45, 996.03 460.20 C 997.19 458.95, 997.70 457.76, 998.36 455.10 C 999.03 452.44, 998.86 450.49, 999.35 446.92 C 999.84 443.35, 1000.24 441.11, 1000.83 437.25 C 1001.42 433.39, 1001.92 431.05, 1002.31 427.63 C 1002.70 424.21, 1003.07 422.65, 1002.78 420.15 C 1002.50 417.65, 1002.02 416.20, 1000.86 415.15 C 999.71 414.10, 998.28 414.03, 997.00 414.89" style="stroke: black; fill: black;"/><path d="M 1102.44,400.82 C 1101.21 401.48, 1100.54 402.31, 1099.81 404.47 C 1099.08 406.63, 1099.09 408.16, 1098.78 411.60 C 1098.48 415.05, 1098.65 417.40, 1098.31 421.69 C 1097.96 425.99, 1097.68 428.53, 1097.08 433.07 C 1096.48 437.61, 1095.94 440.31, 1095.30 444.40 C 1094.66 448.48, 1093.94 450.47, 1093.87 453.49 C 1093.80 456.50, 1094.15 458.18, 1094.96 459.46 C 1095.77 460.73, 1096.79 460.86, 1097.91 459.86 C 1099.03 458.86, 1099.76 457.36, 1100.56 454.46 C 1101.35 451.57, 1101.31 449.48, 1101.89 445.38 C 1102.47 441.29, 1102.76 438.55, 1103.47 434.00 C 1104.19 429.45, 1104.68 426.92, 1105.47 422.64 C 1106.27 418.36, 1106.97 416.06, 1107.45 412.58 C 1107.93 409.10, 1108.16 407.55, 1107.87 405.26 C 1107.58 402.98, 1107.07 402.04, 1105.98 401.15 C 1104.89 400.26, 1103.68 400.15, 1102.44 400.82" style="stroke: black; fill: black;"/><path d="M 1118.07,349.09 C 1119.38 349.68, 1120.40 349.70, 1120.27 349.92 C 1120.13 350.14, 1118.32 350.33, 1117.41 350.20 C 1116.50 350.08, 1115.79 350.17, 1115.73 349.29 C 1115.67 348.42, 1117.28 346.73, 1117.13 345.82 C 1116.98 344.90, 1116.05 344.78, 1114.98 344.72 C 1113.92 344.66, 1112.08 345.07, 1111.82 345.53 C 1111.57 345.99, 1112.45 346.30, 1113.70 347.01 C 1114.95 347.73, 1116.76 348.51, 1118.07 349.09" style="stroke: black; fill: black;"/><path d="M 1149.38,435.95 C 1150.18 437.24, 1151.35 438.19, 1153.76 438.66 C 1156.17 439.14, 1158.02 439.06, 1161.43 438.31 C 1164.84 437.56, 1166.99 436.66, 1170.80 434.91 C 1174.61 433.15, 1176.72 431.85, 1180.48 429.55 C 1184.24 427.24, 1186.18 425.90, 1189.61 423.38 C 1193.04 420.86, 1194.81 419.59, 1197.63 416.95 C 1200.45 414.32, 1201.97 413.03, 1203.71 410.20 C 1205.45 407.36, 1206.04 405.69, 1206.34 402.78 C 1206.64 399.87, 1206.45 398.18, 1205.20 395.64 C 1203.94 393.11, 1202.77 391.57, 1200.06 390.08 C 1197.36 388.60, 1195.37 388.10, 1191.68 388.23 C 1187.98 388.35, 1185.83 389.16, 1181.59 390.70 C 1177.35 392.25, 1174.96 393.35, 1170.49 395.96 C 1166.01 398.56, 1163.47 400.25, 1159.22 403.73 C 1154.96 407.21, 1152.66 409.28, 1149.20 413.37 C 1145.74 417.45, 1144.10 419.71, 1141.91 424.16 C 1139.72 428.61, 1138.75 431.06, 1138.24 435.60 C 1137.73 440.13, 1137.90 442.66, 1139.37 446.85 C 1140.84 451.04, 1142.26 453.23, 1145.58 456.55 C 1148.91 459.88, 1151.20 461.35, 1155.99 463.47 C 1160.78 465.59, 1163.71 466.27, 1169.52 467.15 C 1175.32 468.04, 1179.18 468.01, 1185.00 467.90 C 1190.82 467.78, 1194.05 467.36, 1198.62 466.57 C 1203.19 465.78, 1206.13 465.13, 1207.84 463.94 C 1209.55 462.74, 1209.16 461.06, 1207.18 460.60 C 1205.20 460.13, 1202.40 461.17, 1197.95 461.61 C 1193.49 462.05, 1190.43 462.68, 1184.90 462.79 C 1179.37 462.90, 1175.63 463.00, 1170.28 462.17 C 1164.94 461.34, 1162.32 460.55, 1158.19 458.63 C 1154.06 456.70, 1152.31 455.29, 1149.63 452.55 C 1146.96 449.81, 1146.00 448.20, 1144.83 444.93 C 1143.67 441.65, 1143.44 439.88, 1143.81 436.19 C 1144.18 432.51, 1144.83 430.39, 1146.70 426.49 C 1148.57 422.60, 1149.99 420.44, 1153.16 416.73 C 1156.33 413.01, 1158.52 411.03, 1162.55 407.91 C 1166.58 404.79, 1169.08 403.25, 1173.30 401.14 C 1177.52 399.03, 1179.92 398.25, 1183.63 397.36 C 1187.34 396.47, 1189.22 396.70, 1191.84 396.70 C 1194.46 396.70, 1195.28 396.95, 1196.72 397.37 C 1198.16 397.79, 1198.58 397.96, 1199.06 398.80 C 1199.54 399.64, 1199.56 400.13, 1199.13 401.57 C 1198.70 403.01, 1198.19 403.91, 1196.90 405.99 C 1195.61 408.07, 1194.91 409.56, 1192.66 411.97 C 1190.42 414.39, 1188.78 415.72, 1185.67 418.06 C 1182.55 420.40, 1180.61 421.73, 1177.07 423.66 C 1173.53 425.59, 1171.47 426.58, 1167.97 427.70 C 1164.47 428.83, 1162.45 428.75, 1159.57 429.30 C 1156.68 429.85, 1155.49 429.86, 1153.54 430.45 C 1151.58 431.04, 1150.63 431.15, 1149.79 432.25 C 1148.96 433.36, 1148.59 434.67, 1149.38 435.95" style="stroke: black; fill: black;"/><path d="M 1290.98,401.16 C 1290.97 399.84, 1290.55 398.89, 1289.10 397.66 C 1287.66 396.42, 1286.46 395.53, 1283.75 394.99 C 1281.05 394.44, 1279.07 394.45, 1275.58 394.94 C 1272.09 395.43, 1270.05 396.21, 1266.28 397.42 C 1262.51 398.64, 1260.39 399.38, 1256.73 401.04 C 1253.07 402.69, 1251.11 403.57, 1248.00 405.69 C 1244.89 407.81, 1243.11 408.90, 1241.17 411.64 C 1239.23 414.38, 1238.63 416.24, 1238.30 419.40 C 1237.96 422.56, 1238.18 424.44, 1239.51 427.44 C 1240.83 430.43, 1242.23 431.83, 1244.91 434.37 C 1247.60 436.91, 1249.53 437.96, 1252.94 440.15 C 1256.35 442.35, 1258.46 443.33, 1261.97 445.35 C 1265.48 447.37, 1267.48 448.35, 1270.49 450.25 C 1273.51 452.15, 1274.91 453.38, 1277.05 454.85 C 1279.19 456.32, 1280.17 456.71, 1281.19 457.60 C 1282.22 458.50, 1282.43 458.67, 1282.17 459.34 C 1281.90 460.01, 1281.37 459.94, 1279.86 460.96 C 1278.34 461.99, 1277.46 462.92, 1274.59 464.47 C 1271.72 466.01, 1269.69 467.15, 1265.49 468.67 C 1261.29 470.18, 1258.61 470.97, 1253.59 472.05 C 1248.57 473.13, 1245.57 473.56, 1240.40 474.08 C 1235.23 474.59, 1232.43 474.72, 1227.74 474.62 C 1223.06 474.53, 1220.69 474.35, 1216.98 473.59 C 1213.27 472.83, 1211.73 471.49, 1209.20 470.84 C 1206.67 470.19, 1205.82 470.46, 1204.33 470.35 C 1202.83 470.24, 1202.48 469.95, 1201.71 470.29 C 1200.94 470.62, 1200.40 471.10, 1200.47 472.03 C 1200.54 472.96, 1200.77 473.69, 1202.06 474.95 C 1203.36 476.22, 1204.14 477.39, 1206.95 478.34 C 1209.76 479.30, 1211.97 479.38, 1216.13 479.72 C 1220.28 480.06, 1222.78 480.12, 1227.73 480.04 C 1232.69 479.95, 1235.52 479.80, 1240.90 479.30 C 1246.28 478.80, 1249.34 478.42, 1254.64 477.54 C 1259.93 476.65, 1262.69 476.06, 1267.38 474.89 C 1272.06 473.71, 1274.42 473.25, 1278.04 471.68 C 1281.67 470.11, 1283.45 469.32, 1285.49 467.04 C 1287.54 464.77, 1287.99 462.99, 1288.26 460.32 C 1288.53 457.65, 1288.11 456.13, 1286.84 453.70 C 1285.57 451.28, 1284.44 450.16, 1281.92 448.21 C 1279.39 446.26, 1277.48 445.75, 1274.20 443.95 C 1270.93 442.15, 1268.95 441.20, 1265.54 439.20 C 1262.13 437.20, 1260.15 436.09, 1257.17 433.94 C 1254.18 431.78, 1252.68 430.47, 1250.60 428.44 C 1248.52 426.41, 1247.78 425.43, 1246.76 423.78 C 1245.74 422.13, 1245.33 421.64, 1245.50 420.19 C 1245.67 418.74, 1246.24 418.17, 1247.62 416.54 C 1249.00 414.90, 1249.96 413.74, 1252.39 412.02 C 1254.82 410.30, 1256.56 409.29, 1259.76 407.94 C 1262.96 406.59, 1265.06 405.92, 1268.37 405.25 C 1271.68 404.59, 1273.50 404.59, 1276.30 404.60 C 1279.10 404.62, 1280.34 405.25, 1282.37 405.34 C 1284.39 405.43, 1285.06 405.27, 1286.42 405.05 C 1287.78 404.84, 1288.25 405.04, 1289.16 404.26 C 1290.08 403.49, 1291.00 402.48, 1290.98 401.16" style="stroke: black; fill: black;"/></svg>